<?xml version="1.0" encoding="iso-8859-1"?>
<!-- Uploaded to: SVG Repo, www.svgrepo.com, Generator: SVG Repo Mixer Tools -->
<svg height="800px" width="800px" version="1.1" id="Capa_1" xmlns="http://www.w3.org/2000/svg" xmlns:xlink="http://www.w3.org/1999/xlink" 
	 viewBox="0 0 434.753 434.753" xml:space="preserve">
<g>
	<g>
		<g>
			<path style="fill:#010002;" d="M48.841,0v337.08h106.045l62.49,97.672l62.51-97.672h106.026V0H48.841z M217.24,315.537
				c-101.375-53.628-99.88-186.249-99.88-186.249h200.064C317.423,129.289,316.641,261.235,217.24,315.537z M317.56,117.838H117.232
				V54.254c0,0,33.795,10.171,99.118,10.171c69.554,0,101.209-10.171,101.209-10.171S317.56,117.838,317.56,117.838z
				 M204.656,216.302c3.273,0.83,7.201,0.997,11.46,0.997c13.952,0,26.096-4.123,33.815-12.164
				c5.589-5.735,8.549-13.61,8.549-23.614c0-9.858-3.771-17.899-9.672-23.146c-6.585-5.901-16.902-9.184-31.02-9.184
				c-11.499,0-20.508,0.977-27.405,2.13v109.299h14.274L204.656,216.302L204.656,216.302z M204.646,161.647
				c2.462-0.635,7.21-1.143,13.444-1.143c15.603,0,26.096,7.054,26.096,21.836c0,14.929-10.493,23.458-27.738,23.458
				c-4.748,0-8.705-0.332-11.802-1.153C204.646,204.646,204.646,161.647,204.646,161.647z"/>
		</g>
	</g>
</g>
</svg>